<?xml version="1.0" encoding="UTF-8"?>
<svg id="Layer_1" data-name="Layer 1" xmlns="http://www.w3.org/2000/svg" xmlns:xlink="http://www.w3.org/1999/xlink" viewBox="0 0 792 612">
  <defs>
    <style>
      .cls-1 {
        fill: #fff;
      }

      .cls-1, .cls-2, .cls-3, .cls-4 {
        stroke-width: 0px;
      }

      .cls-5 {
        filter: url(#drop-shadow-2);
      }

      .cls-2 {
        fill: #223f81;
      }

      .cls-3 {
        filter: url(#drop-shadow-3);
      }

      .cls-3, .cls-4 {
        fill: #dd2a27;
      }

      .cls-4 {
        filter: url(#drop-shadow-1);
      }
    </style>
    <filter id="drop-shadow-1" filterUnits="userSpaceOnUse">
      <feOffset dx="5.03" dy="5.03"/>
      <feGaussianBlur result="blur" stdDeviation="2.52"/>
      <feFlood flood-color="#231f20" flood-opacity=".69"/>
      <feComposite in2="blur" operator="in"/>
      <feComposite in="SourceGraphic"/>
    </filter>
    <filter id="drop-shadow-2" filterUnits="userSpaceOnUse">
      <feOffset dx="5.03" dy="5.03"/>
      <feGaussianBlur result="blur-2" stdDeviation="2.52"/>
      <feFlood flood-color="#231f20" flood-opacity=".69"/>
      <feComposite in2="blur-2" operator="in"/>
      <feComposite in="SourceGraphic"/>
    </filter>
    <filter id="drop-shadow-3" filterUnits="userSpaceOnUse">
      <feOffset dx="5.03" dy="5.03"/>
      <feGaussianBlur result="blur-3" stdDeviation="2.52"/>
      <feFlood flood-color="#231f20" flood-opacity=".69"/>
      <feComposite in2="blur-3" operator="in"/>
      <feComposite in="SourceGraphic"/>
    </filter>
  </defs>
  <path class="cls-4" d="M319.3,217.11c11.25-57.51,47.59-104.9,95.97-127.98-67.08,13.37-120.99,63.21-140.31,127.98h44.34Z"/>
  <g class="cls-5">
    <polygon class="cls-2" points="259.64 246.01 240.17 296.37 220.8 246.01 204.41 246.01 185.13 296.37 165.66 246.01 147.6 246.01 176.43 317.52 193 317.52 212.65 266.79 232.31 317.52 248.88 317.52 277.71 246.01 259.64 246.01"/>
    <rect class="cls-2" x="282.75" y="246.01" width="16.94" height="71.51"/>
    <path class="cls-2" d="M384.31,310.78v-20.31h-16.94v13.67h-43.15v-44.74h43.15v12.92h16.94v-19.56c0-4.12-2.53-6.74-6.46-6.74h-64.3c-3.93,0-6.27,2.62-6.27,6.74v58.03c0,4.12,2.34,6.74,6.27,6.74h64.3c3.93,0,6.46-2.62,6.46-6.74Z"/>
    <polygon class="cls-2" points="470.78 246.01 453.84 246.01 453.84 274.56 410.69 274.56 410.69 246.01 393.75 246.01 393.75 317.52 410.69 317.52 410.69 289.16 453.84 289.16 453.84 317.52 470.78 317.52 470.78 246.01"/>
    <rect class="cls-2" x="476.49" y="246.01" width="16.94" height="71.51"/>
    <polygon class="cls-2" points="576.55 246.01 499.04 246.01 499.04 259.77 529.37 259.77 529.37 317.52 546.22 317.52 546.22 259.77 576.55 259.77 576.55 246.01"/>
    <path class="cls-2" d="M609.86,246.01h-17.88l-34.54,71.33v.19h17.5l5.9-12.73h40.15l5.71,12.73h17.69v-.19l-34.54-71.33ZM586.65,292.16l14.23-31.26,14.32,31.26h-28.55Z"/>
    <path class="cls-2" d="M185.71,338.53v-6.63c0-1.64-.99-2.67-2.56-2.67h-24.48c-1.6,0-2.63,1.07-2.63,2.74v7.55c0,1.33.38,2.1,1.75,2.52l21.01,7.02v4.16h-15.86v-4.84h-6.9v7.24c0,1.68,1.03,2.74,2.63,2.74h24.4c1.6,0,2.63-1.07,2.63-2.74v-8.16c0-1.3-.46-2.14-1.75-2.56l-21.01-6.94v-3.58h15.86v4.16h6.9Z"/>
    <polygon class="cls-2" points="217.9 334.83 217.9 329.22 189.62 329.22 189.62 358.35 218.21 358.35 218.21 352.75 196.51 352.75 196.51 346.19 213.52 346.19 213.52 340.97 196.51 340.97 196.51 334.83 217.9 334.83"/>
    <polygon class="cls-2" points="249.37 329.22 242.69 329.22 234.84 349.73 226.91 329.22 219.55 329.22 231.3 358.35 238.04 358.35 246.05 337.69 254.06 358.35 260.8 358.35 272.55 329.22 265.19 329.22 257.26 349.73 249.37 329.22"/>
    <polygon class="cls-2" points="302.46 352.75 280.76 352.75 280.76 346.19 297.77 346.19 297.77 340.97 280.76 340.97 280.76 334.83 302.15 334.83 302.15 329.22 273.86 329.22 273.86 358.35 302.46 358.35 302.46 352.75"/>
    <path class="cls-2" d="M315.05,343.14v3.47l13.27,11.74h8.39v-.27l-11.9-10.06h7.32c1.56,0,2.59-1.03,2.59-2.67v-13.38c0-1.68-1.03-2.74-2.59-2.74h-27.26v29.13h6.9v-23.67h16.09v8.46h-12.81Z"/>
    <path class="cls-2" d="M362.72,353.17h16.35l2.33,5.18h7.2v-.08l-14.07-29.05h-7.28l-14.07,29.05v.08h7.13l2.4-5.18ZM370.88,335.29l5.83,12.73h-11.63l5.79-12.73Z"/>
    <polygon class="cls-2" points="400.44 329.22 393.65 329.22 393.65 358.35 400.55 358.35 400.55 338.34 418.21 358.35 425.03 358.35 425.03 329.22 418.09 329.22 418.09 348.67 400.44 329.22"/>
    <path class="cls-2" d="M432.71,329.22v29.13h20.93c6.94,0,10.64-3.39,10.64-10.29v-8.39c0-6.94-3.7-10.45-10.64-10.45h-20.93ZM457.37,339.94v7.7c0,3.55-1.75,5.11-5.3,5.11h-12.47v-17.92h12.47c3.55,0,5.3,1.56,5.3,5.11Z"/>
    <path class="cls-2" d="M516.64,348.06v-8.39c0-6.94-3.7-10.45-10.64-10.45h-20.93v29.13h20.93c6.94,0,10.64-3.39,10.64-10.29ZM491.97,352.75v-17.92h12.47c3.55,0,5.3,1.56,5.3,5.11v7.7c0,3.55-1.75,5.11-5.3,5.11h-12.47Z"/>
    <path class="cls-2" d="M533.73,343.14v3.47l13.27,11.74h8.39v-.27l-11.9-10.06h7.32c1.56,0,2.59-1.03,2.59-2.67v-13.38c0-1.68-1.03-2.74-2.59-2.74h-27.26v29.13h6.9v-23.67h16.09v8.46h-12.81Z"/>
    <path class="cls-2" d="M583.88,353.17l2.33,5.18h7.2v-.08l-14.07-29.05h-7.28l-14.07,29.05v.08h7.13l2.4-5.18h16.35ZM575.68,335.29l5.83,12.73h-11.63l5.79-12.73Z"/>
    <rect class="cls-2" x="598.46" y="329.22" width="6.9" height="29.13"/>
    <polygon class="cls-2" points="637.46 348.67 619.81 329.22 613.02 329.22 613.02 358.35 619.93 358.35 619.93 338.34 637.58 358.35 644.4 358.35 644.4 329.22 637.46 329.22 637.46 348.67"/>
    <path class="cls-2" d="M644.4,227.68H247.17c22.05-75.04,88.07-131.24,168.3-138.69-6.42-.57-12.91-.88-19.47-.88-92.72,0-171.88,57.94-203.34,139.57h-45.06v7.96h496.8v-7.96Z"/>
    <path class="cls-2" d="M147.6,384.32h45.04c31.46,81.64,110.63,139.57,203.36,139.57s171.91-57.93,203.37-139.57h45.03v-14.27H147.6v14.27ZM433.66,476.98c-70.05,0-131.4-37.08-165.62-92.65h331.29c-34.22,55.58-95.61,92.65-165.67,92.65Z"/>
  </g>
  <path class="cls-2" d="M594.92,217.11c-31.29-69.91-98.29-120.35-177.85-127.98-36.51,27.91-62.54,74.1-69.43,127.98h247.27Z"/>
  <path class="cls-3" d="M376.33,394.64h-60.4c33.66,36.63,81.87,59.65,135.52,59.65s99.09-21.67,132.59-56.46c-28.18,23.86-63.58,38.11-102.05,38.11s-76.92-15.54-105.66-41.31Z"/>
  <g>
    <circle class="cls-1" cx="457.36" cy="159.89" r="6.57" transform="translate(134.62 521.25) rotate(-67.5)"/>
    <path class="cls-1" d="M501.29,157.56h-23.02c-.15-1.4-.44-2.76-.86-4.06h14.91c1.28,0,2.32-1.04,2.32-2.32s-1.04-2.32-2.32-2.32h-17.06c-1.72-2.79-4.08-5.15-6.87-6.87v-17.69c0-1.28-1.04-2.32-2.32-2.32s-2.32,1.04-2.32,2.32v15.54c-1.3-.42-2.66-.71-4.06-.86v-23.01c0-1.28-1.04-2.32-2.32-2.32s-2.32,1.04-2.32,2.32v23c-1.41.15-2.77.44-4.08.86v-15.22c0-1.28-1.04-2.32-2.32-2.32s-2.32,1.04-2.32,2.32v17.37c-2.8,1.73-5.16,4.08-6.89,6.88h-17.68c-1.28,0-2.32,1.04-2.32,2.32s1.04,2.32,2.32,2.32h15.53c-.41,1.3-.7,2.66-.86,4.06h-23c-1.28,0-2.32,1.04-2.32,2.32s1.04,2.32,2.32,2.32h23c.15,1.41.44,2.77.86,4.08h-15.21c-1.28,0-2.32,1.04-2.32,2.32s1.04,2.32,2.32,2.32h17.36c1.73,2.8,4.09,5.16,6.89,6.88v17.37c0,1.28,1.04,2.32,2.32,2.32s2.32-1.04,2.32-2.32v-15.22c1.31.42,2.67.71,4.08.86v23c0,1.28,1.04,2.32,2.32,2.32s2.32-1.04,2.32-2.32v-23.01c1.4-.15,2.76-.44,4.06-.86v14.91c0,1.28,1.04,2.32,2.32,2.32s2.32-1.04,2.32-2.32v-17.06c2.79-1.73,5.14-4.08,6.87-6.87h17.38c1.28,0,2.32-1.04,2.32-2.32s-1.04-2.32-2.32-2.32h-15.23c.42-1.31.71-2.67.86-4.08h23.01c1.28,0,2.32-1.04,2.32-2.32s-1.04-2.32-2.32-2.32ZM457.36,176.27c-9.05,0-16.38-7.33-16.38-16.38s7.33-16.38,16.38-16.38,16.38,7.33,16.38,16.38-7.33,16.38-16.38,16.38Z"/>
  </g>
</svg>